<svg width="16" height="17" viewBox="0 0 16 17" fill="none" xmlns="http://www.w3.org/2000/svg">
<path d="M15.5313 9.03143L10.2813 14.2814C9.8125 14.7502 9 14.4221 9 13.7502V10.7502H4.75C4.33438 10.7502 4 10.4158 4 10.0002V7.00018C4 6.58455 4.33438 6.25018 4.75 6.25018H9V3.25018C9 2.58143 9.80938 2.25018 10.2813 2.71893L15.5313 7.96893C15.8219 8.26268 15.8219 8.73768 15.5313 9.03143ZM6 14.1252V12.8752C6 12.6689 5.83125 12.5002 5.625 12.5002H3C2.44688 12.5002 2 12.0533 2 11.5002V5.50018C2 4.94705 2.44688 4.50018 3 4.50018H5.625C5.83125 4.50018 6 4.33143 6 4.12518V2.87518C6 2.66893 5.83125 2.50018 5.625 2.50018H3C1.34375 2.50018 0 3.84393 0 5.50018V11.5002C0 13.1564 1.34375 14.5002 3 14.5002H5.625C5.83125 14.5002 6 14.3314 6 14.1252Z" fill="white"/>
</svg>
